# xmcd
#
# Track frame offsets: 
#        150
#        27812
#        45733
#        74228
#        94709
#        111106
#        128965
#        147117
#        176935
#        198004
#        221515
#        241429
#        258106
#        278074
#        295456
#        313534
#
# Disc length: 4468 seconds
#
# Revision: 1
# Processed by: cddbd v1.5.2PL0 Copyright (c) Steve Scherf et al.
# Submitted via: ExactAudioCopyFreeDBPlugin 1.0
#
DISCID=f4117210
DTITLE=群星 - 试音宝典03号
DYEAR=2009
DGENRE=Acid
TTITLE0=试机三号《试音》序曲
TTITLE1=你可知道我爱谁
TTITLE2=挪威森林
TTITLE3=相思河畔（男女对唱）
TTITLE4=相思河畔（天籁女声）
TTITLE5=外婆的彭湖湾
TTITLE6=山茶花
TTITLE7=爱上负心的人
TTITLE8=烟花三月
TTITLE9=渔舟唱晚
TTITLE10=船歌
TTITLE11=再见杨柳
TTITLE12=在水一方
TTITLE13=车站
TTITLE14=往事如昔
TTITLE15=夜上海
EXTD=
EXTT0=
EXTT1=
EXTT2=
EXTT3=
EXTT4=
EXTT5=
EXTT6=
EXTT7=
EXTT8=
EXTT9=
EXTT10=
EXTT11=
EXTT12=
EXTT13=
EXTT14=
EXTT15=
PLAYORDER=
